<svg width="24" height="24" viewBox="0 0 24 24" fill="none" xmlns="http://www.w3.org/2000/svg">
<path fill-rule="evenodd" clip-rule="evenodd" d="M17.3104 10.6898C17.3104 13.6198 14.9304 15.9998 12.0004 15.9998C9.07043 15.9998 6.69043 13.6198 6.69043 10.6898V7.31977C6.69043 4.38977 9.07043 2.00977 12.0004 2.00977C14.9304 2.00977 17.3104 4.38977 17.3104 7.31977V10.6898ZM12.0004 3.99977C10.1804 3.99977 8.69043 5.47977 8.69043 7.30977V10.6798C8.69043 12.4998 10.1804 13.9898 12.0004 13.9898C13.8204 13.9898 15.3104 12.5098 15.3104 10.6798V7.30977C15.3104 5.48977 13.8204 3.99977 12.0004 3.99977ZM20.3104 10.6797C20.3104 14.9297 17.1104 18.4297 13.0004 18.9297V19.9997H18.0004V21.9997H6.00043V19.9997H11.0004V18.9297C6.89043 18.4297 3.69043 14.9197 3.69043 10.6797H5.69043C5.69043 14.1597 8.52043 16.9897 12.0004 16.9897C15.4804 16.9897 18.3104 14.1597 18.3104 10.6797H20.3104Z" fill="#008CD6"/>
</svg>
